<?xml version="1.0" encoding="UTF-8" standalone="no"?>
<!-- Created with Inkscape (http://www.inkscape.org/) -->

<svg
   xmlns:dc="http://purl.org/dc/elements/1.1/"
   xmlns:cc="http://creativecommons.org/ns#"
   xmlns:rdf="http://www.w3.org/1999/02/22-rdf-syntax-ns#"
   xmlns:svg="http://www.w3.org/2000/svg"
   xmlns="http://www.w3.org/2000/svg"
   xmlns:xlink="http://www.w3.org/1999/xlink"
   xmlns:sodipodi="http://sodipodi.sourceforge.net/DTD/sodipodi-0.dtd"
   xmlns:inkscape="http://www.inkscape.org/namespaces/inkscape"
   sodipodi:docname="ADT logo.svg"
   inkscape:version="0.92.4 (5da689c313, 2019-01-14)"
   id="svg8"
   version="1.1"
   viewBox="0 0 508 508"
   height="1920"
   width="1920"
   inkscape:export-filename="D:\GOG Games\Settings\MyMod\xcf\ADT logo5.png"
   inkscape:export-xdpi="32"
   inkscape:export-ydpi="32">
  <defs
     id="defs2">
    <linearGradient
       inkscape:collect="always"
       id="linearGradient961">
      <stop
         style="stop-color:#000000;stop-opacity:1;"
         offset="0"
         id="stop957" />
      <stop
         style="stop-color:#000000;stop-opacity:0;"
         offset="1"
         id="stop959" />
    </linearGradient>
    <filter
       inkscape:menu-tooltip="In and out glow with a possible offset and colorizable flood"
       inkscape:menu="Shadows and Glows"
       inkscape:label="Cutout Glow"
       style="color-interpolation-filters:sRGB;"
       id="filter5069">
      <feOffset
         dy="3"
         dx="3"
         id="feOffset5059" />
      <feGaussianBlur
         stdDeviation="3"
         result="blur"
         id="feGaussianBlur5061" />
      <feFlood
         flood-color="rgb(0,0,0)"
         flood-opacity="1"
         result="flood"
         id="feFlood5063" />
      <feComposite
         in="flood"
         in2="SourceGraphic"
         operator="in"
         result="composite"
         id="feComposite5065" />
      <feBlend
         in="blur"
         in2="composite"
         mode="normal"
         id="feBlend5067" />
    </filter>
    <filter
       style="color-interpolation-filters:sRGB"
       id="e"
       x="-0.0060000001"
       y="-0.0060000001"
       width="1.012"
       height="1.012"
       inkscape:collect="always">
      <feGaussianBlur
         inkscape:collect="always"
         stdDeviation="0.16120536"
         id="feGaussianBlur21" />
    </filter>
    <linearGradient
       inkscape:collect="always"
       xlink:href="#linearGradient961"
       id="linearGradient963"
       x1="-414.31196"
       y1="302.39852"
       x2="28.573464"
       y2="302.39852"
       gradientUnits="userSpaceOnUse" />
    <linearGradient
       id="linearGradient832"
       inkscape:collect="always">
      <stop
         id="stop828"
         offset="0"
         style="stop-color:#ffffff;stop-opacity:1;" />
      <stop
         style="stop-color:#ffffff;stop-opacity:0"
         offset="0.49999994"
         id="stop836" />
      <stop
         id="stop830"
         offset="1"
         style="stop-color:#ffffff;stop-opacity:1" />
    </linearGradient>
    <linearGradient
       gradientTransform="matrix(3.7795276,0,0,3.7795276,-386.20752,-533.23251)"
       gradientUnits="userSpaceOnUse"
       y2="146.16852"
       x2="107.32838"
       y1="141.10242"
       x1="102.26228"
       id="linearGradient834-5"
       xlink:href="#linearGradient832"
       inkscape:collect="always" />
    <linearGradient
       gradientUnits="userSpaceOnUse"
       y2="143.01347"
       x2="-85.314606"
       y1="150.41472"
       x1="-92.746353"
       id="linearGradient1464"
       xlink:href="#linearGradient832"
       inkscape:collect="always" />
    <linearGradient
       gradientUnits="userSpaceOnUse"
       y2="133.83153"
       x2="-96.976425"
       y1="140.55772"
       x1="-103.61437"
       id="linearGradient1612"
       xlink:href="#linearGradient832"
       inkscape:collect="always" />
    <filter
       height="1.1644922"
       y="-0.082246108"
       width="3"
       x="-0.10000000000000001"
       id="filter2054"
       style="color-interpolation-filters:sRGB"
       inkscape:collect="always">
      <feGaussianBlur
         id="feGaussianBlur2056"
         stdDeviation="0.10000000000000001"
         inkscape:collect="always" />
    </filter>
    <linearGradient
       gradientTransform="matrix(-0.70425682,0,0,0.70425682,34.157531,47.129109)"
       y2="133.39104"
       x2="-96.462517"
       y1="140.90645"
       x1="-103.9631"
       gradientUnits="userSpaceOnUse"
       id="linearGradient2095"
       xlink:href="#linearGradient832"
       inkscape:collect="always" />
    <filter
       height="1.0214224"
       y="-0.010711217"
       width="1.0272827"
       x="-0.013641337"
       id="filter5955"
       style="color-interpolation-filters:sRGB"
       inkscape:collect="always">
      <feGaussianBlur
         id="feGaussianBlur5957"
         stdDeviation="0.010538767"
         inkscape:collect="always" />
    </filter>
    <filter
       height="1.0431275"
       y="-0.021563746"
       width="1.0541137"
       x="-0.027056861"
       id="filter5983"
       style="color-interpolation-filters:sRGB"
       inkscape:collect="always">
      <feGaussianBlur
         id="feGaussianBlur5985"
         stdDeviation="0.02185297"
         inkscape:collect="always" />
    </filter>
    <filter
       height="1.2287294"
       y="-0.1143647"
       width="1.467631"
       x="-0.2338155"
       id="filter6007"
       style="color-interpolation-filters:sRGB"
       inkscape:collect="always">
      <feGaussianBlur
         id="feGaussianBlur6009"
         stdDeviation="0.062510315"
         inkscape:collect="always" />
    </filter>
    <filter
       height="1.050363"
       y="-0.025181515"
       width="1.050437"
       x="-0.025218513"
       id="filter863"
       style="color-interpolation-filters:sRGB"
       inkscape:collect="always">
      <feGaussianBlur
         id="feGaussianBlur865"
         stdDeviation="0.1755368"
         inkscape:collect="always" />
    </filter>
    <clipPath
       clipPathUnits="userSpaceOnUse"
       id="clipPath160">
      <path
         inkscape:connector-curvature="0"
         d="M 0,0 H 325.984 V 510.236 H 0 Z"
         id="path162" />
    </clipPath>
    <clipPath
       clipPathUnits="userSpaceOnUse"
       id="clipPath176">
      <path
         inkscape:connector-curvature="0"
         d="M 0,0 H 325.984 V 510.236 H 0 Z"
         id="path178" />
    </clipPath>
    <clipPath
       clipPathUnits="userSpaceOnUse"
       id="clipPath202">
      <path
         inkscape:connector-curvature="0"
         d="M 0,0 H 325.984 V 510.236 H 0 Z"
         id="path204" />
    </clipPath>
    <clipPath
       clipPathUnits="userSpaceOnUse"
       id="clipPath238">
      <path
         inkscape:connector-curvature="0"
         d="M 0,0 H 325.984 V 510.236 H 0 Z"
         id="path240" />
    </clipPath>
  </defs>
  <sodipodi:namedview
     id="base"
     pagecolor="#ffffff"
     bordercolor="#666666"
     borderopacity="1.0"
     inkscape:pageopacity="0.0"
     inkscape:pageshadow="2"
     inkscape:zoom="0.3123055"
     inkscape:cx="878.83583"
     inkscape:cy="717.99068"
     inkscape:document-units="mm"
     inkscape:current-layer="g961"
     showgrid="false"
     units="px"
     fit-margin-top="0"
     fit-margin-left="0"
     fit-margin-right="0"
     fit-margin-bottom="0"
     inkscape:window-width="1920"
     inkscape:window-height="1061"
     inkscape:window-x="-4"
     inkscape:window-y="-4"
     inkscape:window-maximized="1" />
  <metadata
     id="metadata5">
    <rdf:RDF>
      <cc:Work
         rdf:about="">
        <dc:format>image/svg+xml</dc:format>
        <dc:type
           rdf:resource="http://purl.org/dc/dcmitype/StillImage" />
        <dc:title />
      </cc:Work>
    </rdf:RDF>
  </metadata>
  <g
     inkscape:groupmode="layer"
     id="layer2"
     inkscape:label="bgrund"
     style="display:inline"
     sodipodi:insensitive="true">
    <image
       sodipodi:absref="C:\Users\Max\Pictures\Stellaris\Gray_Tempest_raw3.png"
       y="0"
       x="-2.7832032e-06"
       id="image4526"
       xlink:href="file:///C:/Users/Max/Pictures/Stellaris/Gray_Tempest_raw3.png"
       style="stroke-width:1.33333325;image-rendering:optimizeSpeed"
       preserveAspectRatio="none"
       height="508"
       width="508" />
  </g>
  <g
     inkscape:label="text"
     inkscape:groupmode="layer"
     id="layer1"
     transform="translate(446.76785,57.541672)"
     style="display:inline;">
    <g
       id="g4749"
       style="fill:#11ff8c;fill-opacity:1;stroke:#11ff8c;stroke-width:2.64583325;stroke-miterlimit:4;stroke-dasharray:none;stroke-opacity:1;filter:url(#filter5069)"
       transform="translate(-1.6341782e-5,1.0394345)">
      <text
         id="text4531"
         y="203.52809"
         x="-193.48894"
         style="font-style:normal;font-variant:normal;font-weight:normal;font-stretch:normal;font-size:77.6111145px;line-height:1000%;font-family:'GoudySans BlkIt BT';-inkscape-font-specification:'GoudySans BlkIt BT';text-align:end;letter-spacing:13.22916698px;word-spacing:0.5291667px;text-anchor:end;fill:#11ff8c;fill-opacity:1;stroke:#11ff8c;stroke-width:2.64583325;stroke-linecap:butt;stroke-linejoin:miter;stroke-miterlimit:4;stroke-dasharray:none;stroke-opacity:1"
         xml:space="preserve"><tspan
           style="font-style:normal;font-variant:normal;font-weight:normal;font-stretch:normal;font-size:77.6111145px;font-family:'Nostromo 3D';-inkscape-font-specification:'Nostromo 3D';text-align:center;letter-spacing:13.22916698px;word-spacing:0.5291667px;text-anchor:middle;fill:#11ff8c;fill-opacity:1;stroke:#11ff8c;stroke-width:2.64583325;stroke-miterlimit:4;stroke-dasharray:none;stroke-opacity:1"
           y="203.52809"
           x="-186.87436"
           id="tspan4529"
           sodipodi:role="line">A <tspan
   id="tspan4553"
   style="font-size:77.6111145px;letter-spacing:13.22916698px;word-spacing:0px;fill:#11ff8c;fill-opacity:1;stroke:#11ff8c;stroke-width:2.64583325;stroke-miterlimit:4;stroke-dasharray:none;stroke-opacity:1">Deadly</tspan></tspan></text>
      <text
         xml:space="preserve"
         style="font-style:normal;font-variant:normal;font-weight:normal;font-stretch:normal;font-size:87.33907318px;line-height:1000%;font-family:'GoudySans BlkIt BT';-inkscape-font-specification:'GoudySans BlkIt BT';text-align:end;letter-spacing:1.32291663px;word-spacing:0.5291667px;text-anchor:end;fill:#11ff8c;fill-opacity:1;stroke:#11ff8c;stroke-width:2.64583325;stroke-linecap:butt;stroke-linejoin:miter;stroke-miterlimit:4;stroke-dasharray:none;stroke-opacity:1"
         x="-193.68364"
         y="435.35687"
         id="text4541"><tspan
           sodipodi:role="line"
           id="tspan4539"
           x="-184.42322"
           y="435.35687"
           style="font-style:normal;font-variant:normal;font-weight:normal;font-stretch:normal;font-size:77.6111145px;font-family:'Nostromo 3D';-inkscape-font-specification:'Nostromo 3D';text-align:center;letter-spacing:18.52083397px;word-spacing:0.5291667px;text-anchor:middle;fill:#11ff8c;fill-opacity:1;stroke:#11ff8c;stroke-width:2.64583325;stroke-miterlimit:4;stroke-dasharray:none;stroke-opacity:1">Tempest</tspan><tspan
           id="tspan4543"
           sodipodi:role="line"
           x="-193.68364"
           y="1308.946"
           style="font-style:normal;font-variant:normal;font-weight:normal;font-stretch:normal;font-family:'Nostromo 3D';-inkscape-font-specification:'Nostromo 3D';text-align:center;letter-spacing:5.29166651px;word-spacing:0.5291667px;text-anchor:middle;fill:#11ff8c;fill-opacity:1;stroke:#11ff8c;stroke-width:2.64583325;stroke-miterlimit:4;stroke-dasharray:none;stroke-opacity:1" /></text>
    </g>
    <text
       xml:space="preserve"
       style="font-style:normal;font-variant:normal;font-weight:normal;font-stretch:normal;font-size:77.6111145px;line-height:1000%;font-family:'GoudySans BlkIt BT';-inkscape-font-specification:'GoudySans BlkIt BT';text-align:end;letter-spacing:13.22916698px;word-spacing:0.5291667px;text-anchor:end;fill:none;fill-opacity:1;stroke:#000000;stroke-width:1.58749998;stroke-linecap:butt;stroke-linejoin:miter;stroke-miterlimit:4;stroke-dasharray:none;stroke-opacity:1"
       x="-193.18912"
       y="204.86754"
       id="text840"><tspan
         sodipodi:role="line"
         id="tspan838"
         x="-186.57454"
         y="204.86754"
         style="font-style:normal;font-variant:normal;font-weight:normal;font-stretch:normal;font-size:77.6111145px;font-family:'Nostromo 3D';-inkscape-font-specification:'Nostromo 3D';text-align:center;letter-spacing:13.22916698px;word-spacing:0.5291667px;text-anchor:middle;fill:none;fill-opacity:1;stroke:#000000;stroke-width:1.58749998;stroke-miterlimit:4;stroke-dasharray:none;stroke-opacity:1">A <tspan
   style="font-size:77.6111145px;letter-spacing:13.22916698px;word-spacing:0px;fill:none;fill-opacity:1;stroke:#000000;stroke-width:1.58749998;stroke-miterlimit:4;stroke-dasharray:none;stroke-opacity:1"
   id="tspan836">Deadly</tspan></tspan></text>
    <use
       x="0"
       y="0"
       xlink:href="#g953"
       id="use955"
       style="fill:#000000;stroke:#000000;stroke-width:1;stroke-miterlimit:4;stroke-dasharray:none"
       transform="translate(0.52916667,0.52916667)"
       width="100%"
       height="100%" />
    <text
       id="text846"
       y="436.69632"
       x="-193.38382"
       style="font-style:normal;font-variant:normal;font-weight:normal;font-stretch:normal;font-size:77.6111145px;line-height:1000%;font-family:'GoudySans BlkIt BT';-inkscape-font-specification:'GoudySans BlkIt BT';text-align:end;letter-spacing:18.52347946px;word-spacing:0.5291667px;text-anchor:end;fill:none;fill-opacity:1;stroke:#000000;stroke-width:1.58749998;stroke-linecap:butt;stroke-linejoin:miter;stroke-miterlimit:4;stroke-dasharray:none;stroke-opacity:1"
       xml:space="preserve"><tspan
         style="font-style:normal;font-variant:normal;font-weight:normal;font-stretch:normal;font-size:77.6111145px;font-family:'Nostromo 3D';-inkscape-font-specification:'Nostromo 3D';text-align:center;letter-spacing:18.52347946px;word-spacing:0.5291667px;text-anchor:middle;fill:none;fill-opacity:1;stroke:#000000;stroke-width:1.58749998;stroke-miterlimit:4;stroke-dasharray:none;stroke-opacity:1"
         y="436.69632"
         x="-184.12209"
         id="tspan842"
         sodipodi:role="line">Tempest</tspan><tspan
         style="font-style:normal;font-variant:normal;font-weight:normal;font-stretch:normal;font-size:77.6111145px;font-family:'Nostromo 3D';-inkscape-font-specification:'Nostromo 3D';text-align:center;letter-spacing:18.52347946px;word-spacing:0.5291667px;text-anchor:middle;fill:none;fill-opacity:1;stroke:#000000;stroke-width:1.58749998;stroke-miterlimit:4;stroke-dasharray:none;stroke-opacity:1"
         y="1212.8075"
         x="-193.38382"
         sodipodi:role="line"
         id="tspan844" /></text>
    <g
       id="g953"
       style="fill:#11ff8c;stroke:#ffffff;stroke-width:1;stroke-miterlimit:4;stroke-dasharray:none;fill-opacity:1;stroke-opacity:1">
      <text
         xml:space="preserve"
         style="font-style:normal;font-variant:normal;font-weight:normal;font-stretch:normal;font-size:77.6111145px;line-height:1000%;font-family:'GoudySans BlkIt BT';-inkscape-font-specification:'GoudySans BlkIt BT';text-align:end;letter-spacing:13.22916698px;word-spacing:0.5291667px;text-anchor:end;fill-opacity:1;stroke-width:1;stroke-miterlimit:4;stroke-dasharray:none;"
         x="-193.48894"
         y="204.56752"
         id="text5075"><tspan
           sodipodi:role="line"
           id="tspan5073"
           x="-186.87436"
           y="204.56752"
           style="font-style:normal;font-variant:normal;font-weight:normal;font-stretch:normal;font-size:77.6111145px;font-family:'Nostromo 3D';-inkscape-font-specification:'Nostromo 3D';text-align:center;letter-spacing:13.22916698px;word-spacing:0.5291667px;text-anchor:middle;fill-opacity:1;stroke-width:1;stroke-miterlimit:4;stroke-dasharray:none;">A <tspan
   style="font-size:77.6111145px;letter-spacing:13.22916698px;word-spacing:0px;fill-opacity:1;stroke-width:1;stroke-miterlimit:4;stroke-dasharray:none;"
   id="tspan5071">Deadly</tspan></tspan></text>
      <text
         id="text5081"
         y="436.3963"
         x="-193.68364"
         style="font-style:normal;font-variant:normal;font-weight:normal;font-stretch:normal;font-size:77.6111145px;line-height:1000%;font-family:'GoudySans BlkIt BT';-inkscape-font-specification:'GoudySans BlkIt BT';text-align:end;letter-spacing:13.22916698px;word-spacing:0.5291667px;text-anchor:end;fill-opacity:1;"
         xml:space="preserve"><tspan
           style="font-style:normal;font-variant:normal;font-weight:normal;font-stretch:normal;font-size:77.6111145px;font-family:'Nostromo 3D';-inkscape-font-specification:'Nostromo 3D';text-align:center;letter-spacing:18.52083397px;word-spacing:0.5291667px;text-anchor:middle;fill-opacity:1;"
           y="436.3963"
           x="-184.42322"
           id="tspan5077"
           sodipodi:role="line">Tempest</tspan><tspan
           style="font-style:normal;font-variant:normal;font-weight:normal;font-stretch:normal;font-size:77.6111145px;font-family:'Nostromo 3D';-inkscape-font-specification:'Nostromo 3D';text-align:center;letter-spacing:13.22916698px;word-spacing:0.5291667px;text-anchor:middle;fill-opacity:1;"
           y="1212.5074"
           x="-193.68364"
           sodipodi:role="line"
           id="tspan5079" /></text>
    </g>
    <rect
       style="opacity:1;vector-effect:none;fill:#11ff8c;fill-opacity:0.50196078;fill-rule:evenodd;stroke:#ffffff;stroke-width:1.323;stroke-linecap:round;stroke-linejoin:miter;stroke-miterlimit:4;stroke-dasharray:none;stroke-dashoffset:0;stroke-opacity:1"
       id="rect837"
       width="325.32248"
       height="325.32248"
       x="12.078975"
       y="-165.01958"
       transform="rotate(-45)" />
    <g
       transform="translate(0.03214547,-0.00166362)"
       id="g961">
      <text
         id="text47"
         xml:space="preserve"
         style="font-size:29.36000061px;line-height:1000%;font-family:Orbitron;text-align:center;letter-spacing:0px;word-spacing:0px;text-anchor:middle;fill:#ffffff;stroke:#000000;stroke-width:3"
         word-spacing="0px"
         text-align="center"
         letter-spacing="0px"
         font-size="29.36px"
         y="-19.39809"
         x="1.8757151"
         transform="rotate(45)"><tspan
           id="tspan45"
           sodipodi:role="line"
           text-align="center"
           font-weight="bold"
           font-size="29.36px"
           y="-19.39809"
           x="1.8757128"
           style="font-weight:bold;font-size:29.36000061px;font-family:Orbitron;text-align:center;text-anchor:middle;fill:#ffffff;stroke:#000000;stroke-width:3">2.6.2</tspan></text>
      <text
         id="text51"
         xml:space="preserve"
         style="font-size:29.36000061px;line-height:1000%;font-family:Orbitron;text-align:center;letter-spacing:0px;word-spacing:0px;text-anchor:middle;fill:#ffffff;stroke:#2299dd;stroke-width:0.69999999;filter:url(#e)"
         word-spacing="0px"
         text-align="center"
         letter-spacing="0px"
         font-size="29.36px"
         y="-23.394085"
         x="1.3101081"
         transform="rotate(45,-3.5792875,-1.4825894)"><tspan
           id="tspan49"
           sodipodi:role="line"
           text-align="center"
           font-weight="bold"
           font-size="29.36px"
           y="-23.394085"
           x="1.3101057"
           style="font-weight:bold;font-size:29.36000061px;font-family:Orbitron;text-align:center;text-anchor:middle;fill:#ffffff;stroke:#11ff8c;stroke-width:0.69999999">2.6.2</tspan></text>
      <rect
         y="434.59305"
         x="45.383381"
         height="9.160284"
         width="9.160284"
         id="rect1074"
         style="opacity:1;vector-effect:none;fill:#000000;fill-opacity:1;fill-rule:evenodd;stroke:none;stroke-width:0.23865415;stroke-linecap:square;stroke-linejoin:bevel;stroke-miterlimit:4;stroke-dasharray:none;stroke-dashoffset:0;stroke-opacity:1" />
      <g
         style="fill:#919fa0;fill-opacity:1;stroke:none;stroke-opacity:1"
         id="g1115"
         transform="matrix(0.20380868,0,0,0.20380868,17.79404,359.16275)">
        <path
           inkscape:connector-curvature="0"
           d="m 159.85856,426.33612 h 1.5775 v 0.4225 h 0.0138 c 0.29375,-0.33875 0.7425,-0.52 1.46625,-0.52 1.05625,0 2.0275,0.57875 2.0275,1.9025 0,1.32375 -0.97125,1.90375 -2.0275,1.90375 -0.665,0 -1.135,-0.1625 -1.41375,-0.50125 h -0.0137 v 1.63625 h -1.63 z m 2.53,2.61375 c 0.58625,0 0.88625,-0.3525 0.88625,-0.80875 0,-0.46875 -0.26,-0.8075 -0.89375,-0.8075 -0.625,0 -0.8925,0.3 -0.8925,0.8075 0,0.50125 0.2675,0.80875 0.9,0.80875"
           style="fill:#919fa0;fill-opacity:1;fill-rule:nonzero;stroke:none;stroke-width:1.25;stroke-opacity:1"
           id="path208" />
        <path
           inkscape:connector-curvature="0"
           d="m 165.64769,427.418 c 0.0975,-0.49 0.3,-0.78875 0.705,-0.9775 0.3975,-0.1825 0.99,-0.2475 1.85125,-0.2475 1.6625,0 2.32125,0.37125 2.32125,1.43375 v 1.72125 c 0,0.27375 0.0712,0.43625 0.14875,0.55375 h -1.66875 c -0.0325,-0.105 -0.0525,-0.22125 -0.0588,-0.3525 -0.365,0.34 -0.91875,0.49625 -1.78625,0.49625 -1.095,0 -1.78625,-0.29375 -1.78625,-1.20625 0,-0.65125 0.4625,-1.06875 1.66875,-1.12125 l 1.37625,-0.0663 c 0.32625,-0.0188 0.43625,-0.0975 0.43625,-0.2925 0,-0.235 -0.29375,-0.345 -0.75625,-0.345 -0.37125,0 -0.7425,0.0575 -0.82125,0.40375 z m 3.24625,0.86 c -0.27375,0.06 -0.73625,0.0975 -1.31625,0.15 -0.3,0.0263 -0.44375,0.12375 -0.44375,0.3525 0,0.2475 0.2025,0.40375 0.60625,0.40375 0.5475,0 1.15375,-0.13625 1.15375,-0.74875 z"
           style="fill:#919fa0;fill-opacity:1;fill-rule:nonzero;stroke:none;stroke-width:1.25;stroke-opacity:1"
           id="path212" />
        <path
           inkscape:connector-curvature="0"
           d="m 171.38518,426.33612 h 1.57625 v 0.68375 h 0.0137 c 0.42375,-0.55375 0.95875,-0.78125 1.51875,-0.78125 0.17625,0 0.35875,0.0125 0.535,0.0375 v 1.46125 c -0.28625,-0.0713 -0.5275,-0.13 -0.815,-0.13 -0.58,0 -1.19875,0.18875 -1.19875,0.95875 v 1.335 h -1.63 z"
           style="fill:#919fa0;fill-opacity:1;fill-rule:nonzero;stroke:none;stroke-width:1.25;stroke-opacity:1"
           id="path216" />
        <path
           inkscape:connector-curvature="0"
           d="m 175.60906,427.418 c 0.0975,-0.49 0.3,-0.78875 0.705,-0.9775 0.39625,-0.1825 0.99,-0.2475 1.85125,-0.2475 1.6625,0 2.32125,0.37125 2.32125,1.43375 v 1.72125 c 0,0.27375 0.0712,0.43625 0.14875,0.55375 h -1.66875 c -0.0325,-0.105 -0.0525,-0.22125 -0.0587,-0.3525 -0.365,0.34 -0.91875,0.49625 -1.78625,0.49625 -1.095,0 -1.78625,-0.29375 -1.78625,-1.20625 0,-0.65125 0.4625,-1.06875 1.66875,-1.12125 l 1.37625,-0.0663 c 0.32625,-0.0188 0.43625,-0.0975 0.43625,-0.2925 0,-0.235 -0.2925,-0.345 -0.75625,-0.345 -0.37125,0 -0.7425,0.0575 -0.82125,0.40375 z m 3.24625,0.86 c -0.27375,0.06 -0.73625,0.0975 -1.31625,0.15 -0.3,0.0263 -0.44375,0.12375 -0.44375,0.3525 0,0.2475 0.2025,0.40375 0.60625,0.40375 0.5475,0 1.15375,-0.13625 1.15375,-0.74875 z"
           style="fill:#919fa0;fill-opacity:1;fill-rule:nonzero;stroke:none;stroke-width:1.25;stroke-opacity:1"
           id="path220" />
        <path
           inkscape:connector-curvature="0"
           d="m 184.65781,429.52412 h -0.0125 c -0.29375,0.33875 -0.74375,0.52125 -1.46625,0.52125 -1.0575,0 -2.02875,-0.58 -2.02875,-1.90375 0,-1.32375 0.97125,-1.90375 2.02875,-1.90375 0.665,0 1.1325,0.1625 1.41375,0.5025 h 0.0138 v -1.65625 h 1.62875 v 4.8175 h -1.5775 z m -0.95125,-2.19125 c -0.5875,0 -0.88625,0.3525 -0.88625,0.80875 0,0.47 0.26,0.80875 0.89125,0.80875 0.6275,0 0.895,-0.3 0.895,-0.80875 0,-0.5025 -0.2675,-0.80875 -0.9,-0.80875"
           style="fill:#919fa0;fill-opacity:1;fill-rule:nonzero;stroke:none;stroke-width:1.25;stroke-opacity:1"
           id="path224" />
        <path
           inkscape:connector-curvature="0"
           d="m 189.55406,426.19299 c 1.83875,0 2.64,0.61125 2.64,1.9225 0,1.3175 -0.80125,1.93 -2.64,1.93 -1.83875,0 -2.64,-0.6125 -2.64,-1.93 0,-1.31125 0.80125,-1.9225 2.64,-1.9225 m 0,2.79625 c 0.65875,0 0.9325,-0.3 0.9325,-0.87375 0,-0.56125 -0.27375,-0.8675 -0.9325,-0.8675 -0.65125,0 -0.9325,0.30625 -0.9325,0.8675 0,0.57375 0.28125,0.87375 0.9325,0.87375"
           style="fill:#919fa0;fill-opacity:1;fill-rule:nonzero;stroke:none;stroke-width:1.25;stroke-opacity:1"
           id="path228" />
        <path
           inkscape:connector-curvature="0"
           d="m 192.41631,429.90137 1.6425,-1.86375 -1.50625,-1.70125 h 1.995 l 0.64625,0.9575 0.645,-0.9575 h 1.99375 l -1.53,1.70125 1.6675,1.86375 h -2.0725 l -0.70375,-1.01 -0.705,1.01 z"
           style="fill:#919fa0;fill-opacity:1;fill-rule:nonzero;stroke:none;stroke-width:1.25;stroke-opacity:1"
           id="path232" />
      </g>
      <g
         transform="matrix(0.25476085,0,0,-0.25476085,-21.847959,450.45999)"
         id="g234"
         style="fill:#919fa0;fill-opacity:1;stroke:none;stroke-opacity:1">
        <g
           id="g236"
           clip-path="url(#clipPath238)"
           style="fill:#919fa0;fill-opacity:1;stroke:none;stroke-opacity:1">
          <g
             id="g242"
             transform="translate(310.2892,31.3923)"
             style="fill:#919fa0;fill-opacity:1;stroke:none;stroke-opacity:1">
            <path
               inkscape:connector-curvature="0"
               d="m 0,0 c -0.155,0.757 0.632,1.412 0.26,2.186 -0.369,0.762 -2.17,0.726 -2.197,1.603 -0.037,1.025 1.454,0.502 2.079,0.483 0,1.642 -0.646,3.045 -2.413,1.936 -0.297,0 -0.7,0.06 -0.841,0.324 -0.529,0.971 1.087,1.179 1.131,1.963 0.025,0.454 -0.53,0.742 -0.703,1.111 -0.118,0.246 -0.014,0.56 -0.014,0.822 0,0.11 -0.127,0.114 -0.213,0.136 -0.334,0.086 -0.643,-0.106 -0.987,-0.032 -0.38,0.082 -0.589,0.429 -0.927,0.587 0,-0.14 -0.243,-0.323 -0.322,-0.437 -0.25,-0.345 -1.145,-1.569 -1.69,-1.038 -0.213,0.208 -0.179,0.576 -0.136,0.857 0.315,2.119 -0.459,2.349 -2.321,2.645 -0.452,0.076 -1.577,0.34 -1.99,0.187 h -0.142 c 0,-0.364 0.46,-2.9 -0.355,-2.767 -0.969,0 -0.44,2.518 -1.845,2.836 -0.232,-0.085 -0.537,-0.12 -0.687,-0.341 -0.2,-0.291 0.197,-1.176 0.284,-1.52 0.106,-0.433 0.084,-1.012 -0.094,-1.39 v -0.069 c -1.59,0 -1.428,3.524 -3.902,1.798 0,-0.943 2.245,-2.136 1.474,-3.171 -0.132,-0.172 -0.351,-0.319 -0.568,-0.348 -1.205,-0.145 -1.681,2.454 -3.027,2.224 -0.22,-0.038 -0.416,-0.211 -0.509,-0.398 -0.317,-0.614 1.173,-1.508 1.388,-2.119 0.119,-0.333 0.014,-0.639 -0.037,-0.961 -1.133,0 -2.465,1.626 -3.52,0.595 -0.167,-0.16 -0.348,-0.383 -0.283,-0.631 0.108,-0.431 0.875,-0.358 1.108,-0.763 0.01,-0.017 0.017,-0.033 0.026,-0.051 0.399,-0.907 -0.52,-1.578 -0.532,-2.401 -0.01,-0.41 0.309,-0.642 0.178,-1.093 -0.451,-1.537 -1.91,0.177 -2.605,-0.48 -0.625,-0.589 0.086,-1.815 0.133,-2.508 0.029,-0.454 -0.217,-0.795 -0.246,-1.239 -0.028,-0.403 0.262,-0.706 0.362,-1.064 0.134,-0.491 -0.007,-1.034 0.265,-1.459 0.784,-1.214 2.121,2.087 2.715,0.696 0.481,-1.126 -1.952,-1.064 -2.011,-1.918 -0.062,-0.848 1.417,-1.612 1.98,-2.161 0.493,-0.481 0.884,-1.097 0.95,-1.787 0.063,-0.69 -0.26,-1.391 -0.436,-1.997 0.25,0 0.433,-0.108 0.696,-0.032 1.234,0.365 1.959,2.337 1.756,3.556 -0.174,1.027 -0.735,1.906 -0.804,2.98 -0.069,1.056 0.962,2.83 -0.025,3.586 -0.044,0.026 -0.088,0.053 -0.133,0.078 0,-0.11 -0.235,-0.147 -0.356,-0.151 -0.216,-0.007 -0.388,0.077 -0.534,0.192 -0.213,0.167 -0.338,0.424 -0.167,0.672 0.238,0.347 0.91,0.28 0.991,0.75 0.171,1.04 -2.007,1.244 -0.689,2.526 0.244,0.24 0.586,0.428 0.964,0.397 0.611,-0.047 2.083,-0.483 2,-1.266 -0.039,-0.355 -0.338,-0.688 -0.209,-1.086 0.132,-0.412 0.737,-0.365 0.896,-0.754 0.216,-0.527 -0.223,-0.918 -0.181,-1.409 0.01,-0.124 0.065,-0.168 0.158,-0.242 0.186,-0.145 0.544,-0.194 0.652,-0.435 0.275,-0.611 -0.464,-1.354 0.522,-1.684 0,0.434 -0.099,1.02 0.283,1.245 0,-0.104 0.211,-0.249 0.274,-0.35 0.311,-0.486 0.441,-0.942 1.074,-1.103 0,0.586 -0.177,1.225 -0.497,1.661 v 0.07 c 0.454,0 0.733,-0.6 1.248,-0.463 0.47,0.127 0.053,0.65 -0.057,0.871 -0.312,0.627 0.137,1.136 -0.053,1.716 -0.202,0.613 -1.843,1.048 -2.348,1.542 -0.17,0.163 -0.349,0.433 -0.265,0.689 0.309,0.962 1.444,0.388 2.236,0.615 0.371,0.109 0.652,0.366 0.916,0.656 0.363,0.404 0.619,1.063 0.391,1.613 -0.135,0.327 -0.373,0.574 -0.315,0.984 0.239,1.729 3.038,1.633 4.258,1.005 0.623,-0.319 1.214,-1.052 0.884,-1.8 -0.292,-0.656 -1.083,-0.274 -1.64,-0.518 -0.492,-0.212 -1.137,-1.204 -1.301,-1.672 -0.248,-0.704 0.446,-1.236 0.493,-1.919 0.096,-1.495 -0.607,-2.868 -0.905,-4.217 -0.056,-0.247 0.163,-0.581 0.031,-0.808 -0.215,-0.364 -0.663,-0.229 -1.022,-0.363 -0.278,-0.104 -0.404,-0.32 -0.647,-0.473 -0.522,-0.322 -1.125,-0.478 -1.193,-1.194 0.329,0 0.571,0.177 0.921,0.209 v -0.07 h 0.071 c -10e-4,-0.025 -0.006,-0.046 -0.008,-0.068 -0.082,-0.622 -0.572,-1.149 -0.274,-1.799 0.439,0 0.544,1.027 1.277,0.76 0.086,0 0.075,-0.005 0.097,-0.079 0.15,-0.479 0.211,-0.89 0.47,-1.305 h 0.213 v 0.07 c 0.117,0 0.071,0.177 0.071,0.276 0,0.441 -0.083,1.009 0.067,1.385 0.215,0.559 0.601,0.487 0.5,1.243 0.113,0 0.247,0.195 0.371,0.236 0.896,0.314 1.045,0.834 2.182,0.796 0.275,-0.007 0.553,-0.02 0.783,-0.133 h 0.071 v 0.07 c 0.139,0 0.013,0.376 -0.018,0.48 -0.399,1.322 -0.905,2.63 -0.905,4.154 h 0.214 c 0,-0.171 0.675,-1.086 0.804,-1.299 0.169,-0.269 0.717,-1.527 1.202,-1.252 0.226,0.132 0.362,1.711 0.494,2.06 0.481,1.295 1.84,1.58 2.638,0.327 0.756,-1.184 0.29,-3.684 -0.678,-4.601 -0.381,-0.353 -0.919,-0.354 -1.283,-0.688 -0.381,-0.346 -0.04,-0.999 -0.102,-1.456 -0.059,-0.422 -0.341,-0.821 -0.652,-1.125 -0.696,-0.676 -1.617,-0.98 -2.326,-1.611 -0.303,-0.265 -0.368,-0.705 -0.737,-0.868 -0.362,-0.156 -0.807,0.043 -1.184,-0.068 -0.274,-0.172 -0.551,-0.345 -0.829,-0.518 -0.511,-0.266 -1.022,-0.532 -1.534,-0.798 h -0.072 c 0,-1.084 2.594,-0.507 3.128,-0.218 0.379,0.205 0.491,0.703 0.868,0.865 0.399,0.174 0.749,-0.234 1.18,-0.087 0.4,0.145 0.774,0.467 1.127,0.702 0.681,0.463 1.413,0.851 2.047,1.394 0.214,0.188 0.553,0.445 0.644,0.701 0.19,0.527 -0.451,1.072 0.233,1.416 0,0.115 0.382,0.002 0.492,-0.014 0.997,-0.133 1.988,1.87 2.179,2.58 0.111,0.547 0.22,1.099 0.33,1.649 0.139,0.329 0.272,0.66 0.412,0.993 C 0.847,-0.565 0.119,-0.592 0,0 m -22.568,-2.097 c -0.799,-0.167 -1.357,0.749 -0.998,1.393 0.15,0.274 0.383,0.397 0.644,0.549 0.313,-0.028 0.585,-0.057 0.815,-0.247 0.666,-0.553 0.342,-1.524 -0.461,-1.695 m 5.323,5.815 c 0,-0.124 -0.209,0.03 -0.289,0.063 -1.013,0.43 -0.594,1.085 -0.207,1.804 0.602,-0.24 1.084,-1.355 0.496,-1.867 m 1.418,-2.974 c 0.573,-0.28 1.29,-0.951 1.229,-1.656 -0.029,-0.079 -0.06,-0.16 -0.088,-0.24 -0.15,-0.075 -0.366,-0.031 -0.506,0.022 -0.757,0.292 -0.635,1.106 -0.635,1.874 m 7.465,-3.312 c -0.039,-0.324 -0.158,-0.467 -0.368,-0.7 -0.363,0 -0.7,0.175 -0.808,0.499 -0.1,0.292 -0.009,0.66 0.017,0.955 0.082,1.046 0.161,2.237 0.508,3.18 0.347,-0.771 0.226,-1.675 0.397,-2.549 0.087,-0.444 0.312,-0.881 0.254,-1.385 m 5.096,4.557 c -0.477,0 -0.941,-0.057 -1.412,0.037 -1.776,0.352 -0.245,2.345 0.135,3.145 0.723,-0.657 1.527,-2.14 1.277,-3.182"
               style="fill:#919fa0;fill-opacity:1;fill-rule:nonzero;stroke:none;stroke-opacity:1"
               id="path244" />
          </g>
        </g>
      </g>
      <g
         id="g962"
         transform="matrix(4.6747681,0,0,4.6747681,-11.441276,373.06649)">
        <g
           style="display:none"
           inkscape:label="pixel"
           id="layer2-6">
          <image
             inkscape:export-ydpi="96"
             inkscape:export-xdpi="96"
             inkscape:export-filename="C:\Users\Max\Pictures\templates\image823.png"
             width="15.345834"
             height="15.345834"
             preserveAspectRatio="none"
             style="stroke-width:1.33333337;image-rendering:optimizeSpeed"
             xlink:href="file:///C:/Users/Max/Pictures/ship_parts/ship_part_strike_craft_scout_1.png"
             id="image823"
             x="-3.1054688e-07"
             y="-4.8013862e-07"
             sodipodi:absref="C:\Users\Max\Pictures\ship_parts\ship_part_strike_craft_scout_1.png" />
        </g>
        <g
           style="opacity:1"
           transform="translate(-93.059357,-131.96518)"
           id="layer1-3"
           inkscape:label="Ebene 1">
          <path
             sodipodi:nodetypes="cccccccccccccccccccccccccccccsccccccccscccccccc"
             transform="matrix(0.18281393,0,0,0.18281393,107.79098,133.62549)"
             inkscape:connector-curvature="0"
             id="path869"
             d="m -19.15609,52.52753 v 2.389896 c 0,0 0.159631,0.548643 -0.397991,0.616591 -0.768171,0.182148 -2.71741,0.720604 -2.71741,0.720604 -0.408597,0.384663 -0.84988,0.617863 -1.020159,1.194512 -0.05744,0.447588 -0.356139,1.187117 0.315973,1.071804 0.394753,-0.07646 0.498568,-1.074347 0.459529,-1.397647 1.500121,-0.957932 2.818257,-1.135807 4.619726,-1.686557 0.604796,0.393741 -0.382191,1.662331 -0.715783,2.091724 -0.419561,0.898622 -1.471018,1.15971 -2.10724,1.844171 -0.131787,1.090263 -0.01963,2.220786 -0.05383,3.325946 0.02538,0.620944 1.038532,0.570204 1.001787,-0.05013 V 59.86524 c 0.627753,-0.589426 1.274188,-1.190841 1.934914,-1.694392 0.284167,-0.518891 0.579649,-0.974856 1.067015,-0.363811 0.479262,0.277765 0.921561,0.575416 0.763683,1.195955 0.168352,0.660706 -0.565119,0.993095 -0.881454,1.477346 -0.375852,0.499079 -1.085195,0.90409 -0.905646,1.629866 0.02641,1.184243 -0.0512,2.383222 0.03566,3.558869 0.214727,0.572982 1.118447,0.250433 0.960436,-0.329388 v -3.45882 c 0.576671,-0.71481 1.108012,-1.873637 1.592906,-2.646183 0.04137,-0.408729 0.0347,-0.307329 0.589407,-0.171901 0.183929,0.135358 -0.667996,0.774185 -0.320151,0.998136 0.521455,0.641737 1.191576,1.226898 1.619835,1.904103 0.02746,1.216246 -0.05364,2.446677 0.03809,3.654601 0.229289,0.593683 1.143338,0.22811 0.965818,-0.364079 -0.02832,-1.251633 0.05562,-2.518338 -0.04001,-3.761016 -0.523397,-0.739884 -1.29591,-1.354484 -1.758905,-2.104033 0,0 0.111778,-0.630914 0.597021,-1.060203 0.31849,-0.281764 0.578069,-1.258594 0.81919,-0.494303 l 1.608182,1.242931 c 0.484581,0.272248 0.588934,1.107731 0.588934,1.107731 l 0.0252,2.752241 c 0.249967,0.529791 0.9820356,0.282926 0.9389138,-0.374589 l -0.050799,-3.212789 c -0.5787038,-0.711948 -1.3254868,-0.971497 -1.7383148,-1.850507 -0.22177,-0.414078 -0.990972,-0.749068 -0.376977,-1.129903 0.406855,-0.18613 0.851023,-0.266491 1.328243,-0.204109 0.7005449,0.09157 1.8236186,0.258208 2.363589,0.776732 0.3914506,0.248546 0.6468568,0.687385 0.4934046,1.233161 0.088065,0.61244 0.343621,0.686247 0.8085413,-0.149541 0.045015,-0.473506 -0.4321593,-1.206257 -0.4321593,-1.206257 -0.7715276,-0.64378 -3.7658366,-1.43828 -3.7658366,-1.43828 l 0.0334,-2.862803 -4.55262,-3.280443 z"
             style="color:#000000;font-style:normal;font-variant:normal;font-weight:normal;font-stretch:normal;font-size:medium;line-height:normal;font-family:sans-serif;font-variant-ligatures:normal;font-variant-position:normal;font-variant-caps:normal;font-variant-numeric:normal;font-variant-alternates:normal;font-feature-settings:normal;text-indent:0;text-align:start;text-decoration:none;text-decoration-line:none;text-decoration-style:solid;text-decoration-color:#000000;letter-spacing:normal;word-spacing:normal;text-transform:none;writing-mode:lr-tb;direction:ltr;text-orientation:mixed;dominant-baseline:auto;baseline-shift:baseline;text-anchor:start;white-space:normal;shape-padding:0;clip-rule:nonzero;display:inline;overflow:visible;visibility:visible;opacity:0.8;isolation:auto;mix-blend-mode:normal;color-interpolation:sRGB;color-interpolation-filters:linearRGB;solid-color:#000000;solid-opacity:1;fill:#000000;fill-opacity:1;fill-rule:nonzero;stroke:#000000;stroke-width:1.30544853;stroke-linecap:round;stroke-linejoin:round;stroke-miterlimit:4;stroke-dasharray:none;stroke-dashoffset:0;stroke-opacity:1;filter:url(#filter863);color-rendering:auto;image-rendering:auto;shape-rendering:auto;text-rendering:auto;enable-background:accumulate" />
          <path
             sodipodi:nodetypes="ccccc"
             inkscape:connector-curvature="0"
             d="m 104.55991,145.48747 v -0.68194 l 0.41293,-0.47453 0.39291,0.47451 v 0.68194"
             style="opacity:1;fill:none;stroke:#919fa0;stroke-width:0.26499999;stroke-linecap:square;stroke-linejoin:round;stroke-miterlimit:4;stroke-dasharray:none;stroke-dashoffset:0;stroke-opacity:1"
             id="path2235" />
          <path
             sodipodi:nodetypes="ccccccc"
             inkscape:connector-curvature="0"
             d="m 104.0159,144.98014 v -0.55685 l 0.37808,-0.32612 0.57148,-0.89688 0.58087,0.89686 0.36303,0.32612 v 0.55685"
             style="opacity:1;fill:none;stroke:#919fa0;stroke-width:0.238125;stroke-linecap:square;stroke-linejoin:round;stroke-miterlimit:4;stroke-dasharray:none;stroke-dashoffset:0;stroke-opacity:1"
             id="path2233" />
          <path
             sodipodi:nodetypes="ccccc"
             inkscape:connector-curvature="0"
             d="m 103.50177,144.16247 c -6.6e-4,-0.10533 0.13956,-0.22366 0.22247,-0.27386 l 1.24448,-0.27905 1.25904,0.27905 c 0.0829,0.0502 0.21014,0.17193 0.21078,0.27386"
             style="opacity:1;fill:none;stroke:#919fa0;stroke-width:0.22489583;stroke-linecap:square;stroke-linejoin:round;stroke-miterlimit:4;stroke-dasharray:none;stroke-dashoffset:0;stroke-opacity:1"
             id="path846" />
          <path
             sodipodi:nodetypes="ccccccccc"
             transform="matrix(0.69095029,0,0,0.69095029,35.710269,48.962698)"
             inkscape:connector-curvature="0"
             id="path1362"
             d="m 102.29063,137.69166 -0.28129,-0.27759 -0.42121,-0.0863 m -0.0816,1.55283 v -0.72976 l -0.37966,-0.25062 m -0.35602,1.72309 -0.0179,-0.88934 -0.26318,-0.28756"
             style="opacity:0.7;fill:none;stroke:#ffffff;stroke-width:0.07275608;stroke-linecap:round;stroke-linejoin:round;stroke-miterlimit:4;stroke-dasharray:none;stroke-dashoffset:0;stroke-opacity:1;filter:url(#filter5955)" />
          <path
             sodipodi:nodetypes="ccccccccc"
             transform="matrix(0.69095029,0,0,0.69095029,35.73094,48.970966)"
             inkscape:connector-curvature="0"
             id="path1354"
             d="m 98.037417,137.52461 c 0.230469,-0.30974 0.601279,-0.29549 1.065358,-0.41361 m -0.314985,1.61417 0.03291,-0.69223 0.526245,-0.46602 0.058,-0.11053 m 0.146486,1.98508 0.0359,-0.84934 c 0.159413,-0.17902 0.229079,-0.29221 0.388492,-0.47123"
             style="opacity:0.8;fill:none;stroke:#ffffff;stroke-width:0.10583332;stroke-linecap:round;stroke-linejoin:round;stroke-miterlimit:4;stroke-dasharray:none;stroke-dashoffset:0;stroke-opacity:1;filter:url(#filter5983)" />
          <path
             sodipodi:nodetypes="ccccccc"
             inkscape:connector-curvature="0"
             id="path915"
             d="m 104.27317,143.16451 v 0.35533 l 0.69503,0.99709 0.69384,-0.99709 v -0.35533 l -0.69545,-0.59031 z"
             style="opacity:1;fill:#90a29f;fill-opacity:1;stroke:#919fa0;stroke-width:0.15875;stroke-linecap:square;stroke-linejoin:bevel;stroke-miterlimit:4;stroke-dasharray:none;stroke-dashoffset:0;stroke-opacity:1" />
          <path
             sodipodi:nodetypes="cscc"
             transform="matrix(0.69095029,0,0,0.69095029,35.853717,49.006045)"
             inkscape:connector-curvature="0"
             id="path1378"
             d="m 99.820903,135.84829 c 0,0 -0.505782,0.23697 -0.614468,0.52323 -0.07225,0.19029 -0.0015,0.5339 0.225413,0.78858 -0.125648,-0.49115 0.150591,-1.06747 0.389055,-1.31181 z"
             style="color:#000000;font-style:normal;font-variant:normal;font-weight:normal;font-stretch:normal;font-size:medium;line-height:normal;font-family:sans-serif;font-variant-ligatures:normal;font-variant-position:normal;font-variant-caps:normal;font-variant-numeric:normal;font-variant-alternates:normal;font-feature-settings:normal;text-indent:0;text-align:start;text-decoration:none;text-decoration-line:none;text-decoration-style:solid;text-decoration-color:#000000;letter-spacing:normal;word-spacing:normal;text-transform:none;writing-mode:lr-tb;direction:ltr;text-orientation:mixed;dominant-baseline:auto;baseline-shift:baseline;text-anchor:start;white-space:normal;shape-padding:0;clip-rule:nonzero;display:inline;overflow:visible;visibility:visible;opacity:0.7;isolation:auto;mix-blend-mode:normal;color-interpolation:sRGB;color-interpolation-filters:linearRGB;solid-color:#000000;solid-opacity:1;vector-effect:none;fill:#ffffff;fill-opacity:1;fill-rule:nonzero;stroke:none;stroke-width:0.21166667;stroke-linecap:round;stroke-linejoin:round;stroke-miterlimit:4;stroke-dasharray:none;stroke-dashoffset:0;stroke-opacity:1;filter:url(#filter6007);color-rendering:auto;image-rendering:auto;shape-rendering:auto;text-rendering:auto;enable-background:accumulate" />
          <g
             transform="matrix(0.90462604,0,0,0.90462604,10.21226,13.866146)"
             id="g2137">
            <circle
               cx="-100.42927"
               cy="137.46622"
               r="3.6633482"
               id="circle1372"
               style="opacity:0.8;fill:none;fill-opacity:1;fill-rule:evenodd;stroke:#000000;stroke-width:0.91366088;stroke-miterlimit:4;stroke-dasharray:none;filter:url(#filter2054)"
               transform="matrix(-0.70425679,0,0,0.70425679,34.176919,47.13557)" />
            <path
               style="opacity:1;fill:none;fill-opacity:1;fill-rule:evenodd;stroke:#919fa0;stroke-width:0.52646065;stroke-miterlimit:4;stroke-dasharray:none;stroke-opacity:1"
               d="m 102.2205,143.8155 c -0.0635,1.67308 1.76433,3.01779 3.34237,2.4647 1.61605,-0.43405 2.36342,-2.57682 1.36689,-3.92144 -0.89227,-1.41617 -3.16005,-1.49647 -4.15025,-0.14698 -0.36009,0.45139 -0.56044,1.02639 -0.55901,1.60372 z"
               id="circle861"
               inkscape:connector-curvature="0" />
            <path
               style="opacity:1;fill:none;fill-opacity:1;fill-rule:evenodd;stroke:url(#linearGradient2095);stroke-width:0.14916386;stroke-miterlimit:4;stroke-dasharray:none"
               d="m 102.13706,143.67511 c -0.0635,1.67307 1.76433,3.01779 3.34236,2.46471 1.61606,-0.43406 2.36343,-2.57684 1.36689,-3.92145 -0.89226,-1.41616 -3.16004,-1.49647 -4.15025,-0.14697 -0.36008,0.45138 -0.56043,1.02637 -0.559,1.60371 z"
               id="circle1604"
               inkscape:connector-curvature="0" />
          </g>
        </g>
      </g>
    </g>
  </g>
</svg>
