<?xml version="1.0" encoding="UTF-8" standalone="no"?>
<svg
   xmlns:dc="http://purl.org/dc/elements/1.1/"
   xmlns:cc="http://creativecommons.org/ns#"
   xmlns:rdf="http://www.w3.org/1999/02/22-rdf-syntax-ns#"
   xmlns:svg="http://www.w3.org/2000/svg"
   xmlns="http://www.w3.org/2000/svg"
   xmlns:xlink="http://www.w3.org/1999/xlink"
   xmlns:sodipodi="http://sodipodi.sourceforge.net/DTD/sodipodi-0.dtd"
   xmlns:inkscape="http://www.inkscape.org/namespaces/inkscape"
   width="1920"
   height="1920"
   version="1.1"
   viewBox="0 0 508 508"
   id="svg1847"
   sodipodi:docname="ADT logo2cc.svg"
   enable-background="new"
   inkscape:version="0.92.4 (5da689c313, 2019-01-14)">
  <metadata
     id="metadata1851">
    <rdf:RDF>
      <cc:Work
         rdf:about="">
        <dc:format>image/svg+xml</dc:format>
        <dc:type
           rdf:resource="http://purl.org/dc/dcmitype/StillImage" />
      </cc:Work>
    </rdf:RDF>
  </metadata>
  <sodipodi:namedview
     pagecolor="#ff88ff"
     bordercolor="#666666"
     borderopacity="1"
     objecttolerance="10"
     gridtolerance="10"
     guidetolerance="10"
     inkscape:pageopacity="0"
     inkscape:pageshadow="2"
     inkscape:window-width="1920"
     inkscape:window-height="1061"
     id="namedview1849"
     showgrid="false"
     inkscape:zoom="0.69532167"
     inkscape:cx="1159.9351"
     inkscape:cy="875.77952"
     inkscape:window-x="-4"
     inkscape:window-y="-4"
     inkscape:window-maximized="1"
     inkscape:current-layer="layer1" />
  <defs
     id="defs1745">
    <filter
       id="g"
       color-interpolation-filters="sRGB">
      <feOffset
         dx="3"
         dy="3"
         id="feOffset1703" />
      <feGaussianBlur
         result="blur"
         stdDeviation="3"
         id="feGaussianBlur1705" />
      <feFlood
         flood-color="rgb(0,0,0)"
         result="flood"
         id="feFlood1707" />
      <feComposite
         in="flood"
         in2="SourceGraphic"
         operator="in"
         result="composite"
         id="feComposite1709" />
      <feBlend
         in="blur"
         in2="composite"
         id="feBlend1711" />
    </filter>
    <filter
       id="e"
       x="-.006"
       y="-.006"
       width="1.012"
       height="1.012"
       color-interpolation-filters="sRGB">
      <feGaussianBlur
         stdDeviation="0.16120536"
         id="feGaussianBlur1714" />
    </filter>
    <filter
       id="h"
       y="-.08225"
       width="3"
       height="1.164"
       color-interpolation-filters="sRGB">
      <feGaussianBlur
         stdDeviation="0.1"
         id="feGaussianBlur1717" />
    </filter>
    <linearGradient
       id="a"
       x1="-104"
       x2="-96.46"
       y1="140.9"
       y2="133.4"
       gradientTransform="matrix(-.7043 0 0 .7043 34.16 47.13)"
       gradientUnits="userSpaceOnUse">
      <stop
         stop-color="#fff"
         offset="0"
         id="stop1720" />
      <stop
         stop-color="#fff"
         stop-opacity="0"
         offset=".5"
         id="stop1722" />
      <stop
         stop-color="#fff"
         offset="1"
         id="stop1724" />
    </linearGradient>
    <filter
       id="f"
       x="-.01364"
       y="-.01071"
       width="1.027"
       height="1.021"
       color-interpolation-filters="sRGB">
      <feGaussianBlur
         stdDeviation="0.010538767"
         id="feGaussianBlur1727" />
    </filter>
    <filter
       id="d"
       x="-.02706"
       y="-.02156"
       width="1.054"
       height="1.043"
       color-interpolation-filters="sRGB">
      <feGaussianBlur
         stdDeviation="0.02185297"
         id="feGaussianBlur1730" />
    </filter>
    <filter
       id="c"
       x="-.2338"
       y="-.1144"
       width="1.468"
       height="1.229"
       color-interpolation-filters="sRGB">
      <feGaussianBlur
         stdDeviation="0.062510315"
         id="feGaussianBlur1733" />
    </filter>
    <filter
       id="b"
       x="-.02522"
       y="-.02518"
       width="1.05"
       height="1.05"
       color-interpolation-filters="sRGB">
      <feGaussianBlur
         stdDeviation="0.1755368"
         id="feGaussianBlur1736" />
    </filter>
    <clipPath
       id="j">
      <path
         d="m0 0h326v510.2h-326z"
         id="path1739" />
    </clipPath>
    <filter
       id="i"
       color-interpolation-filters="sRGB">
      <feBlend
         in2="BackgroundImage"
         mode="screen"
         id="feBlend1742" />
    </filter>
    <filter
       inkscape:collect="always"
       style="color-interpolation-filters:sRGB"
       id="filter1854">
      <feBlend
         inkscape:collect="always"
         mode="screen"
         in2="BackgroundImage"
         id="feBlend1856" />
    </filter>
  </defs>
  <image
     x="-2.783e-6"
     width="508"
     height="508"
     image-rendering="optimizeSpeed"
     stroke-width="1.333"
     preserveAspectRatio="none"
     xlink:href="Gray_Tempest_raw3.png"
     id="image1747" />
  <g
     transform="matrix(1.3 0 0 .8 450 58)"
     font-family="'Nostromo 3D'"
     font-size="62px"
     letter-spacing="10.49px"
     text-anchor="middle"
     word-spacing="-11px"
     id="g1764">
    <g
       transform="translate(0,1)"
       fill="#11ff8c"
       filter="url(#g)"
       stroke="#11ff8c"
       stroke-width="2.1"
       id="g1751">
      <use
         width="100%"
         height="100%"
         xlink:href="#text"
         id="use1749" />
    </g>
    <g
       transform="translate(.25 .5)"
       fill="none"
       stroke="#000"
       stroke-width="1.25"
       id="g1760">
      <text
         id="text"
         x="-150"
         y="230"
         sodipodi:role="line">A Deadly<tspan
   x="-155"
   y="542"
   letter-spacing="14.5px"
   id="tspan1757">Tem<tspan
   dx="-2"
   id="tspan1753">p</tspan>es<tspan dx="-11" id="tspan1755">t</tspan>
</tspan>
</text>
    </g>
    <use
       width="100%"
       height="100%"
       fill="#11ff8c"
       stroke="#eeeeee"
       stroke-width=".8"
       xlink:href="#text"
       id="use1762" />
  </g>
  <g
     transform="translate(446.8 57.54)"
     id="g1837">
    <rect
       transform="rotate(-45)"
       x="12.08"
       y="-165"
       width="325.3"
       height="325.3"
       fill="#11ff8c"
       fill-opacity=".5"
       stroke="#eee"
       stroke-linecap="round"
       stroke-width="1.323"
       id="rect1766" />
    <g
       fill="#eee"
       stroke="#000"
       stroke-width="3"
       id="g1771">
      <text
         id="v"
         transform="rotate(45)"
         x="1.8757151"
         y="-19.39809"
         font-family="Orbitron"
         font-size="29.36px"
         font-weight="bold"
         letter-spacing="0px"
         text-anchor="middle"
         word-spacing="0px">
        <tspan
           id="tspan1768">2.8.1</tspan>
      </text>
    </g>
    <use
       x="0.2"
       y="-1.2"
       width="100%"
       height="100%"
       fill="#ffffff"
       filter="url(#e)"
       stroke="#11ff8c"
       stroke-width=".7"
       xlink:href="#v"
       id="use1773" />
    <rect
       x="45.38"
       y="434.6"
       width="9.16"
       height="9.16"
       id="rect1775" />
    <g
       transform="matrix(.2038 0 0 .2038 17.79 359.2)"
       fill="#919fa0"
       id="g1791">
      <path
         d="m159.9 426.3h1.578v.4225h.0138c.2938-.3388.7425-.52 1.466-.52 1.056 0 2.028.5788 2.028 1.902s-.9712 1.904-2.028 1.904c-.665 0-1.135-.1625-1.414-.5012h-.0137v1.636h-1.63zm2.53 2.614c.5862 0 .8862-.3525.8862-.8088 0-.4688-.26-.8075-.8938-.8075-.625 0-.8925.3-.8925.8075 0 .5012.2675.8088.9.8088"
         id="path1777" />
      <path
         d="m165.6 427.4c.0975-.49.3-.7888.705-.9775.3975-.1825.99-.2475 1.851-.2475 1.662 0 2.321.3712 2.321 1.434v1.721c0 .2738.0712.4362.1488.5538h-1.669c-.0325-.105-.0525-.2212-.0588-.3525-.365.34-.9188.4962-1.786.4962-1.095 0-1.786-.2938-1.786-1.206 0-.6512.4625-1.069 1.669-1.121l1.376-.0663c.3262-.0188.4362-.0975.4362-.2925 0-.235-.2938-.345-.7562-.345-.3712 0-.7425.0575-.8212.4038zm3.246.86c-.2738.06-.7362.0975-1.316.15-.3.0263-.4438.1238-.4438.3525 0 .2475.2025.4038.6062.4038.5475 0 1.154-.1362 1.154-.7488z"
         id="path1779" />
      <path
         d="m171.4 426.3h1.576v.6838h.0137c.4238-.5538.9588-.7812 1.519-.7812.1762 0 .3588.0125.535.0375v1.461c-.2862-.0713-.5275-.13-.815-.13-.58 0-1.199.1888-1.199.9588v1.335h-1.63z"
         id="path1781" />
      <path
         d="m175.6 427.4c.0975-.49.3-.7888.705-.9775.3962-.1825.99-.2475 1.851-.2475 1.662 0 2.321.3712 2.321 1.434v1.721c0 .2738.0712.4362.1488.5538h-1.669c-.0325-.105-.0525-.2212-.0587-.3525-.365.34-.9188.4962-1.786.4962-1.095 0-1.786-.2938-1.786-1.206 0-.6512.4625-1.069 1.669-1.121l1.376-.0663c.3262-.0188.4362-.0975.4362-.2925 0-.235-.2925-.345-.7562-.345-.3712 0-.7425.0575-.8212.4038zm3.246.86c-.2738.06-.7362.0975-1.316.15-.3.0263-.4438.1238-.4438.3525 0 .2475.2025.4038.6062.4038.5475 0 1.154-.1362 1.154-.7488z"
         id="path1783" />
      <path
         d="m184.7 429.5h-.0125c-.2938.3388-.7438.5212-1.466.5212-1.058 0-2.029-.58-2.029-1.904s.9712-1.904 2.029-1.904c.665 0 1.132.1625 1.414.5025h.0138v-1.656h1.629v4.818h-1.578zm-.9512-2.191c-.5875 0-.8862.3525-.8862.8088 0 .47.26.8088.8912.8088.6275 0 .895-.3.895-.8088 0-.5025-.2675-.8088-.9-.8088"
         id="path1785" />
      <path
         d="m189.6 426.2c1.839 0 2.64.6112 2.64 1.922 0 1.318-.8012 1.93-2.64 1.93s-2.64-.6125-2.64-1.93c0-1.311.8012-1.922 2.64-1.922m0 2.796c.6588 0 .9325-.3.9325-.8738 0-.5612-.2738-.8675-.9325-.8675-.6512 0-.9325.3062-.9325.8675 0 .5738.2812.8738.9325.8738"
         id="path1787" />
      <path
         d="m192.4 429.9 1.642-1.864-1.506-1.701h1.995l.6462.9575.645-.9575h1.994l-1.53 1.701 1.668 1.864h-2.072l-.7038-1.01-.705 1.01z"
         id="path1789" />
    </g>
    <g
       transform="matrix(.2548 0 0 -.2548 -21.85 450.5)"
       fill="#919fa0"
       id="g1799">
      <g
         clip-path="url(#j)"
         fill="#919fa0"
         id="g1797">
        <g
           transform="translate(310.3,31.39)"
           fill="#919fa0"
           id="g1795">
          <path
             d="m0 0c-.155.757.632 1.412.26 2.186-.369.762-2.17.726-2.197 1.603-.037 1.025 1.454.502 2.079.483 0 1.642-.646 3.045-2.413 1.936-.297 0-.7.06-.841.324-.529.971 1.087 1.179 1.131 1.963.025.454-.53.742-.703 1.111-.118.246-.014.56-.014.822 0 .11-.127.114-.213.136-.334.086-.643-.106-.987-.032-.38.082-.589.429-.927.587 0-.14-.243-.323-.322-.437-.25-.345-1.145-1.569-1.69-1.038-.213.208-.179.576-.136.857.315 2.119-.459 2.349-2.321 2.645-.452.076-1.577.34-1.99.187h-.142c0-.364.46-2.9-.355-2.767-.969 0-.44 2.518-1.845 2.836-.232-.085-.537-.12-.687-.341-.2-.291.197-1.176.284-1.52.106-.433.084-1.012-.094-1.39v-.069c-1.59 0-1.428 3.524-3.902 1.798 0-.943 2.245-2.136 1.474-3.171-.132-.172-.351-.319-.568-.348-1.205-.145-1.681 2.454-3.027 2.224-.22-.038-.416-.211-.509-.398-.317-.614 1.173-1.508 1.388-2.119.119-.333.014-.639-.037-.961-1.133 0-2.465 1.626-3.52.595-.167-.16-.348-.383-.283-.631.108-.431.875-.358 1.108-.763.01-.017.017-.033.026-.051.399-.907-.52-1.578-.532-2.401-.01-.41.309-.642.178-1.093-.451-1.537-1.91.177-2.605-.48-.625-.589.086-1.815.133-2.508.029-.454-.217-.795-.246-1.239-.028-.403.262-.706.362-1.064.134-.491-.007-1.034.265-1.459.784-1.214 2.121 2.087 2.715.696.481-1.126-1.952-1.064-2.011-1.918-.062-.848 1.417-1.612 1.98-2.161.493-.481.884-1.097.95-1.787.063-.69-.26-1.391-.436-1.997.25 0 .433-.108.696-.032 1.234.365 1.959 2.337 1.756 3.556-.174 1.027-.735 1.906-.804 2.98-.069 1.056.962 2.83-.025 3.586-.044.026-.088.053-.133.078 0-.11-.235-.147-.356-.151-.216-.007-.388.077-.534.192-.213.167-.338.424-.167.672.238.347.91.28.991.75.171 1.04-2.007 1.244-.689 2.526.244.24.586.428.964.397.611-.047 2.083-.483 2-1.266-.039-.355-.338-.688-.209-1.086.132-.412.737-.365.896-.754.216-.527-.223-.918-.181-1.409.01-.124.065-.168.158-.242.186-.145.544-.194.652-.435.275-.611-.464-1.354.522-1.684 0 .434-.099 1.02.283 1.245 0-.104.211-.249.274-.35.311-.486.441-.942 1.074-1.103 0 .586-.177 1.225-.497 1.661v.07c.454 0 .733-.6 1.248-.463.47.127.053.65-.057.871-.312.627.137 1.136-.053 1.716-.202.613-1.843 1.048-2.348 1.542-.17.163-.349.433-.265.689.309.962 1.444.388 2.236.615.371.109.652.366.916.656.363.404.619 1.063.391 1.613-.135.327-.373.574-.315.984.239 1.729 3.038 1.633 4.258 1.005.623-.319 1.214-1.052.884-1.8-.292-.656-1.083-.274-1.64-.518-.492-.212-1.137-1.204-1.301-1.672-.248-.704.446-1.236.493-1.919.096-1.495-.607-2.868-.905-4.217-.056-.247.163-.581.031-.808-.215-.364-.663-.229-1.022-.363-.278-.104-.404-.32-.647-.473-.522-.322-1.125-.478-1.193-1.194.329 0 .571.177.921.209v-.07h.071c-.001-.025-.006-.046-.008-.068-.082-.622-.572-1.149-.274-1.799.439 0 .544 1.027 1.277.76.086 0 .075-.005.097-.079.15-.479.211-.89.47-1.305h.213v.07c.117 0 .071.177.071.276 0 .441-.083 1.009.067 1.385.215.559.601.487.5 1.243.113 0 .247.195.371.236.896.314 1.045.834 2.182.796.275-.007.553-.02.783-.133h.071v.07c.139 0 .013.376-.018.48-.399 1.322-.905 2.63-.905 4.154h.214c0-.171.675-1.086.804-1.299.169-.269.717-1.527 1.202-1.252.226.132.362 1.711.494 2.06.481 1.295 1.84 1.58 2.638.327.756-1.184.29-3.684-.678-4.601-.381-.353-.919-.354-1.283-.688-.381-.346-.04-.999-.102-1.456-.059-.422-.341-.821-.652-1.125-.696-.676-1.617-.98-2.326-1.611-.303-.265-.368-.705-.737-.868-.362-.156-.807.043-1.184-.068-.274-.172-.551-.345-.829-.518-.511-.266-1.022-.532-1.534-.798h-.072c0-1.084 2.594-.507 3.128-.218.379.205.491.703.868.865.399.174.749-.234 1.18-.087.4.145.774.467 1.127.702.681.463 1.413.851 2.047 1.394.214.188.553.445.644.701.19.527-.451 1.072.233 1.416 0 .115.382.002.492-.014.997-.133 1.988 1.87 2.179 2.58.111.547.22 1.099.33 1.649.139.329.272.66.412.993.201.815-.527.788-.646 1.38m-22.57-2.097c-.799-.167-1.357.749-.998 1.393.15.274.383.397.644.549.313-.028.585-.057.815-.247.666-.553.342-1.524-.461-1.695m5.323 5.815c0-.124-.209.03-.289.063-1.013.43-.594 1.085-.207 1.804.602-.24 1.084-1.355.496-1.867m1.418-2.974c.573-.28 1.29-.951 1.229-1.656-.029-.079-.06-.16-.088-.24-.15-.075-.366-.031-.506.022-.757.292-.635 1.106-.635 1.874m7.465-3.312c-.039-.324-.158-.467-.368-.7-.363 0-.7.175-.808.499-.1.292-.009.66.017.955.082 1.046.161 2.237.508 3.18.347-.771.226-1.675.397-2.549.087-.444.312-.881.254-1.385m5.096 4.557c-.477 0-.941-.057-1.412.037-1.776.352-.245 2.345.135 3.145.723-.657 1.527-2.14 1.277-3.182"
             fill="#919fa0"
             id="path1793" />
        </g>
      </g>
    </g>
    <g
       transform="matrix(4.675,0,0,4.675,-11.44,373.1)"
       id="g1835">
      <g
         transform="translate(-93.06,-132)"
         id="g1833">
        <path
           transform="matrix(.1828 0 0 .1828 107.8 133.6)"
           d="m-19.16 52.53v2.39s.1596.5486-.398.6166c-.7682.1821-2.717.7206-2.717.7206-.4086.3847-.8499.6179-1.02 1.195-.05744.4476-.3561 1.187.316 1.072.3948-.07646.4986-1.074.4595-1.398 1.5-.9579 2.818-1.136 4.62-1.687.6048.3937-.3822 1.662-.7158 2.092-.4196.8986-1.471 1.16-2.107 1.844-.1318 1.09-.01963 2.221-.05383 3.326.02538.6209 1.039.5702 1.002-.05013v-2.783c.6278-.5894 1.274-1.191 1.935-1.694.2842-.5189.5796-.9749 1.067-.3638.4793.2778.9216.5754.7637 1.196.1684.6607-.5651.9931-.8815 1.477-.3759.4991-1.085.9041-.9056 1.63.02641 1.184-.0512 2.383.03566 3.559.2147.573 1.118.2504.9604-.3294v-3.459c.5767-.7148 1.108-1.874 1.593-2.646.04137-.4087.0347-.3073.5894-.1719.1839.1354-.668.7742-.3202.9981.5215.6417 1.192 1.227 1.62 1.904.02746 1.216-.05364 2.447.03809 3.655.2293.5937 1.143.2281.9658-.3641-.02832-1.252.05562-2.518-.04001-3.761-.5234-.7399-1.296-1.354-1.759-2.104 0 0 .1118-.6309.597-1.06.3185-.2818.5781-1.259.8192-.4943l1.608 1.243c.4846.2722.5889 1.108.5889 1.108l.0252 2.752c.25.5298.982.2829.9389-.3746l-.0508-3.213c-.5787-.7119-1.325-.9715-1.738-1.851-.2218-.4141-.991-.7491-.377-1.13.4069-.1861.851-.2665 1.328-.2041.7005.09157 1.824.2582 2.364.7767.3915.2485.6469.6874.4934 1.233.08806.6124.3436.6862.8085-.1495.04502-.4735-.4322-1.206-.4322-1.206-.7715-.6438-3.766-1.438-3.766-1.438l.0334-2.863-4.553-3.28z"
           color="#000000"
           dominant-baseline="auto"
           filter="url(#b)"
           opacity=".8"
           stroke="#000"
           stroke-linecap="round"
           stroke-linejoin="round"
           stroke-width="1.305"
           style="font-feature-settings:normal;font-variant-alternates:normal;font-variant-caps:normal;font-variant-ligatures:normal;font-variant-numeric:normal;font-variant-position:normal;isolation:auto;mix-blend-mode:normal;shape-padding:0;text-decoration-color:#000000;text-decoration-line:none;text-decoration-style:solid;text-indent:0;text-orientation:mixed;text-transform:none;white-space:normal"
           id="path1805" />
        <g
           fill="none"
           stroke-linecap="round"
           stroke-linejoin="round"
           id="g1819">
          <g
             stroke="#919fa0"
             id="g1813">
            <path
               d="m104.6 145.5v-.6819l.4129-.4745.3929.4745v.6819"
               stroke-width=".265"
               id="path1807" />
            <path
               d="m104 145v-.5568l.3781-.3261.5715-.8969.5809.8969.363.3261v.5568"
               stroke-width=".2381"
               id="path1809" />
            <path
               d="m103.5 144.2c-.00066-.1053.1396-.2237.2225-.2739l1.244-.279 1.259.279c.0829.0502.2101.1719.2108.2739"
               stroke-width=".2249"
               id="path1811" />
          </g>
          <path
             transform="matrix(.691 0 0 .691 35.71 48.96)"
             d="m102.3 137.7-.2813-.2776-.4212-.0863m-.0816 1.553v-.7298l-.3797-.2506m-.356 1.723-.0179-.8893-.2632-.2876"
             filter="url(#f)"
             opacity=".7"
             stroke="#eee"
             stroke-width=".07276"
             id="path1815" />
          <path
             transform="matrix(.691 0 0 .691 35.73 48.97)"
             d="m98.04 137.5c.2305-.3097.6013-.2955 1.065-.4136m-.315 1.614.03291-.6922.5262-.466.058-.1105m.1465 1.985.0359-.8493c.1594-.179.2291-.2922.3885-.4712"
             filter="url(#d)"
             opacity=".8"
             stroke="#eee"
             stroke-width=".1058"
             id="path1817" />
        </g>
        <path
           d="m104.3 143.2v.3553l.695.9971.6938-.9971v-.3553l-.6954-.5903z"
           fill="#90a29f"
           stroke="#919fa0"
           stroke-linecap="square"
           stroke-linejoin="bevel"
           stroke-width=".1588"
           id="path1821" />
        <path
           transform="matrix(.691 0 0 .691 35.85 49.01)"
           d="m99.82 135.8s-.5058.237-.6145.5232c-.07225.1903-.0015.5339.2254.7886-.1256-.4912.1506-1.067.3891-1.312z"
           color="#000000"
           dominant-baseline="auto"
           fill="#eee"
           filter="url(#c)"
           opacity=".7"
           style="font-feature-settings:normal;font-variant-alternates:normal;font-variant-caps:normal;font-variant-ligatures:normal;font-variant-numeric:normal;font-variant-position:normal;isolation:auto;mix-blend-mode:normal;shape-padding:0;text-decoration-color:#000000;text-decoration-line:none;text-decoration-style:solid;text-indent:0;text-orientation:mixed;text-transform:none;white-space:normal"
           id="path1823" />
        <g
           transform="matrix(.9046 0 0 .9046 10.21 13.87)"
           fill="none"
           id="g1831">
          <circle
             transform="matrix(-.7043 0 0 .7043 34.18 47.14)"
             cx="-100.4"
             cy="137.5"
             r="3.663"
             filter="url(#h)"
             opacity=".8"
             stroke="#000"
             stroke-width=".9137"
             id="circle1825" />
          <path
             d="m102.2 143.8c-.0635 1.673 1.764 3.018 3.342 2.465 1.616-.434 2.363-2.577 1.367-3.921-.8923-1.416-3.16-1.496-4.15-.147-.3601.4514-.5604 1.026-.559 1.604z"
             stroke="#919fa0"
             stroke-width=".5265"
             id="path1827" />
          <path
             d="m102.1 143.7c-.0635 1.673 1.764 3.018 3.342 2.465 1.616-.4341 2.363-2.577 1.367-3.921-.8923-1.416-3.16-1.496-4.15-.147-.3601.4514-.5604 1.026-.559 1.604z"
             stroke="url(#a)"
             stroke-width=".1492"
             id="path1829" />
        </g>
      </g>
    </g>
  </g>
  <g
     transform="translate(435 57.54)"
     filter="url(#i)"
     opacity=".75"
     style="filter:url(#filter1854);opacity:0.75"
     inkscape:groupmode="layer"
     id="g1845"
     inkscape:label="gray">
    <text
       transform="scale(1.287 .7768)"
       x="-148.69302"
       y="310.80838"
       fill="#fafafa"
       font-family="'Nostromo 3D'"
       font-size="51.64px"
       stroke="#798899"
       stroke-width=".6653"
       text-anchor="middle"
       id="text1843">
      <tspan
         x="-142.53178"
         y="310.80838"
         letter-spacing="12.32px"
         id="tspan1839">Gray</tspan>
    </text>
  </g>
</svg>
