<?xml version="1.0" encoding="UTF-8" standalone="no"?>
<!-- Created with Inkscape (http://www.inkscape.org/) -->

<svg
   xmlns:dc="http://purl.org/dc/elements/1.1/"
   xmlns:cc="http://creativecommons.org/ns#"
   xmlns:rdf="http://www.w3.org/1999/02/22-rdf-syntax-ns#"
   xmlns:svg="http://www.w3.org/2000/svg"
   xmlns="http://www.w3.org/2000/svg"
   xmlns:xlink="http://www.w3.org/1999/xlink"
   xmlns:sodipodi="http://sodipodi.sourceforge.net/DTD/sodipodi-0.dtd"
   xmlns:inkscape="http://www.inkscape.org/namespaces/inkscape"
   width="57.999996"
   height="57.999996"
   viewBox="0 0 15.345833 15.345833"
   version="1.1"
   id="svg8"
   inkscape:version="0.92.4 (5da689c313, 2019-01-14)"
   sodipodi:docname="nanitesign1.svg"
   inkscape:export-filename="C:\Users\Max\Pictures\templates\NanoSigSVG12.png"
   inkscape:export-xdpi="96.000008"
   inkscape:export-ydpi="96.000008">
  <defs
     id="defs2">
    <linearGradient
       inkscape:collect="always"
       id="linearGradient832">
      <stop
         style="stop-color:#ffffff;stop-opacity:1;"
         offset="0"
         id="stop828" />
      <stop
         id="stop836"
         offset="0.49999994"
         style="stop-color:#ffffff;stop-opacity:0" />
      <stop
         style="stop-color:#ffffff;stop-opacity:1"
         offset="1"
         id="stop830" />
    </linearGradient>
    <linearGradient
       inkscape:collect="always"
       xlink:href="#linearGradient832"
       id="linearGradient834-5"
       x1="102.26228"
       y1="141.10242"
       x2="107.32838"
       y2="146.16852"
       gradientUnits="userSpaceOnUse"
       gradientTransform="matrix(3.7795276,0,0,3.7795276,-386.20752,-533.23251)" />
    <linearGradient
       inkscape:collect="always"
       xlink:href="#linearGradient832"
       id="linearGradient1464"
       x1="-92.746353"
       y1="150.41472"
       x2="-85.314606"
       y2="143.01347"
       gradientUnits="userSpaceOnUse" />
    <linearGradient
       inkscape:collect="always"
       xlink:href="#linearGradient832"
       id="linearGradient1612"
       x1="-103.61437"
       y1="140.55772"
       x2="-96.976425"
       y2="133.83153"
       gradientUnits="userSpaceOnUse" />
    <filter
       inkscape:collect="always"
       style="color-interpolation-filters:sRGB"
       id="filter2054"
       x="-0.10000000000000001"
       width="3"
       y="-0.082246108"
       height="1.1644922">
      <feGaussianBlur
         inkscape:collect="always"
         stdDeviation="0.10000000000000001"
         id="feGaussianBlur2056" />
    </filter>
    <linearGradient
       inkscape:collect="always"
       xlink:href="#linearGradient832"
       id="linearGradient2095"
       gradientUnits="userSpaceOnUse"
       x1="-103.9631"
       y1="140.90645"
       x2="-96.462517"
       y2="133.39104"
       gradientTransform="matrix(-0.70425682,0,0,0.70425682,34.157531,47.129109)" />
    <filter
       inkscape:collect="always"
       style="color-interpolation-filters:sRGB"
       id="filter5955"
       x="-0.013641337"
       width="1.0272827"
       y="-0.010711217"
       height="1.0214224">
      <feGaussianBlur
         inkscape:collect="always"
         stdDeviation="0.010538767"
         id="feGaussianBlur5957" />
    </filter>
    <filter
       inkscape:collect="always"
       style="color-interpolation-filters:sRGB"
       id="filter5983"
       x="-0.027056861"
       width="1.0541137"
       y="-0.021563746"
       height="1.0431275">
      <feGaussianBlur
         inkscape:collect="always"
         stdDeviation="0.02185297"
         id="feGaussianBlur5985" />
    </filter>
    <filter
       inkscape:collect="always"
       style="color-interpolation-filters:sRGB"
       id="filter6007"
       x="-0.2338155"
       width="1.467631"
       y="-0.1143647"
       height="1.2287294">
      <feGaussianBlur
         inkscape:collect="always"
         stdDeviation="0.062510315"
         id="feGaussianBlur6009" />
    </filter>
    <filter
       inkscape:collect="always"
       style="color-interpolation-filters:sRGB"
       id="filter863"
       x="-0.025218513"
       width="1.050437"
       y="-0.025181515"
       height="1.050363">
      <feGaussianBlur
         inkscape:collect="always"
         stdDeviation="0.1755368"
         id="feGaussianBlur865" />
    </filter>
  </defs>
  <sodipodi:namedview
     id="base"
     pagecolor="#ed9595"
     bordercolor="#666666"
     borderopacity="1.0"
     inkscape:pageopacity="0"
     inkscape:pageshadow="2"
     inkscape:zoom="32"
     inkscape:cx="44.024714"
     inkscape:cy="13.720712"
     inkscape:document-units="mm"
     inkscape:current-layer="layer1"
     showgrid="true"
     fit-margin-top="0"
     fit-margin-left="0"
     fit-margin-right="0"
     fit-margin-bottom="0"
     units="px"
     inkscape:window-width="1920"
     inkscape:window-height="1061"
     inkscape:window-x="-4"
     inkscape:window-y="-4"
     inkscape:window-maximized="1"
     inkscape:snap-smooth-nodes="false"
     inkscape:snap-midpoints="false"
     inkscape:snap-others="false"
     inkscape:snap-global="false">
    <inkscape:grid
       type="xygrid"
       id="grid2246" />
  </sodipodi:namedview>
  <metadata
     id="metadata5">
    <rdf:RDF>
      <cc:Work
         rdf:about="">
        <dc:format>image/svg+xml</dc:format>
        <dc:type
           rdf:resource="http://purl.org/dc/dcmitype/StillImage" />
        <dc:title />
      </cc:Work>
    </rdf:RDF>
  </metadata>
  <g
     inkscape:groupmode="layer"
     id="layer2"
     inkscape:label="pixel"
     style="display:none">
    <image
       sodipodi:absref="C:\Users\Max\Pictures\ship_parts\ship_part_strike_craft_scout_1.png"
       y="-4.8013862e-07"
       x="-3.1054688e-07"
       id="image823"
       xlink:href="file:///C:/Users/Max/Pictures/ship_parts/ship_part_strike_craft_scout_1.png"
       style="stroke-width:1.33333337;image-rendering:optimizeSpeed"
       preserveAspectRatio="none"
       height="15.345834"
       width="15.345834"
       inkscape:export-filename="C:\Users\Max\Pictures\templates\image823.png"
       inkscape:export-xdpi="96"
       inkscape:export-ydpi="96" />
  </g>
  <g
     inkscape:label="Ebene 1"
     inkscape:groupmode="layer"
     id="layer1"
     transform="translate(-93.059357,-131.96518)"
     style="opacity:1">
    <path
       style="color:#000000;font-style:normal;font-variant:normal;font-weight:normal;font-stretch:normal;font-size:medium;line-height:normal;font-family:sans-serif;font-variant-ligatures:normal;font-variant-position:normal;font-variant-caps:normal;font-variant-numeric:normal;font-variant-alternates:normal;font-feature-settings:normal;text-indent:0;text-align:start;text-decoration:none;text-decoration-line:none;text-decoration-style:solid;text-decoration-color:#000000;letter-spacing:normal;word-spacing:normal;text-transform:none;writing-mode:lr-tb;direction:ltr;text-orientation:mixed;dominant-baseline:auto;baseline-shift:baseline;text-anchor:start;white-space:normal;shape-padding:0;clip-rule:nonzero;display:inline;overflow:visible;visibility:visible;opacity:0.8;isolation:auto;mix-blend-mode:normal;color-interpolation:sRGB;color-interpolation-filters:linearRGB;solid-color:#000000;solid-opacity:1;fill:#000000;fill-opacity:1;fill-rule:nonzero;stroke:#000000;stroke-width:1.30544848;stroke-linecap:round;stroke-linejoin:round;stroke-miterlimit:4;stroke-dasharray:none;stroke-dashoffset:0;stroke-opacity:1;color-rendering:auto;image-rendering:auto;shape-rendering:auto;text-rendering:auto;enable-background:accumulate;filter:url(#filter863)"
       d="m -19.15609,52.52753 v 2.389896 c 0,0 0.159631,0.548643 -0.397991,0.616591 -0.768171,0.182148 -2.71741,0.720604 -2.71741,0.720604 -0.408597,0.384663 -0.84988,0.617863 -1.020159,1.194512 -0.05744,0.447588 -0.356139,1.187117 0.315973,1.071804 0.394753,-0.07646 0.498568,-1.074347 0.459529,-1.397647 1.500121,-0.957932 2.818257,-1.135807 4.619726,-1.686557 0.604796,0.393741 -0.382191,1.662331 -0.715783,2.091724 -0.419561,0.898622 -1.471018,1.15971 -2.10724,1.844171 -0.131787,1.090263 -0.01963,2.220786 -0.05383,3.325946 0.02538,0.620944 1.038532,0.570204 1.001787,-0.05013 V 59.86524 c 0.627753,-0.589426 1.274188,-1.190841 1.934914,-1.694392 0.284167,-0.518891 0.579649,-0.974856 1.067015,-0.363811 0.479262,0.277765 0.921561,0.575416 0.763683,1.195955 0.168352,0.660706 -0.565119,0.993095 -0.881454,1.477346 -0.375852,0.499079 -1.085195,0.90409 -0.905646,1.629866 0.02641,1.184243 -0.0512,2.383222 0.03566,3.558869 0.214727,0.572982 1.118447,0.250433 0.960436,-0.329388 v -3.45882 c 0.576671,-0.71481 1.108012,-1.873637 1.592906,-2.646183 0.04137,-0.408729 0.0347,-0.307329 0.589407,-0.171901 0.183929,0.135358 -0.667996,0.774185 -0.320151,0.998136 0.521455,0.641737 1.191576,1.226898 1.619835,1.904103 0.02746,1.216246 -0.05364,2.446677 0.03809,3.654601 0.229289,0.593683 1.143338,0.22811 0.965818,-0.364079 -0.02832,-1.251633 0.05562,-2.518338 -0.04001,-3.761016 -0.523397,-0.739884 -1.29591,-1.354484 -1.758905,-2.104033 0,0 0.111778,-0.630914 0.597021,-1.060203 0.31849,-0.281764 0.578069,-1.258594 0.81919,-0.494303 l 1.608182,1.242931 c 0.484581,0.272248 0.588934,1.107731 0.588934,1.107731 l 0.0252,2.752241 c 0.249967,0.529791 0.9820356,0.282926 0.9389138,-0.374589 l -0.050799,-3.212789 c -0.5787038,-0.711948 -1.3254868,-0.971497 -1.7383148,-1.850507 -0.22177,-0.414078 -0.990972,-0.749068 -0.376977,-1.129903 0.406855,-0.18613 0.851023,-0.266491 1.328243,-0.204109 0.7005449,0.09157 1.8236186,0.258208 2.363589,0.776732 0.3914506,0.248546 0.6468568,0.687385 0.4934046,1.233161 0.088065,0.61244 0.343621,0.686247 0.8085413,-0.149541 0.045015,-0.473506 -0.4321593,-1.206257 -0.4321593,-1.206257 -0.7715276,-0.64378 -3.7658366,-1.43828 -3.7658366,-1.43828 l 0.0334,-2.862803 -4.55262,-3.280443 z"
       id="path869"
       inkscape:connector-curvature="0"
       transform="matrix(0.18281393,0,0,0.18281393,107.79098,133.62549)"
       sodipodi:nodetypes="cccccccccccccccccccccccccccccsccccccccscccccccc" />
    <path
       id="path2235"
       style="opacity:1;fill:none;stroke:#919fa0;stroke-width:0.265;stroke-linecap:square;stroke-linejoin:round;stroke-miterlimit:4;stroke-dasharray:none;stroke-dashoffset:0;stroke-opacity:1"
       d="m 104.55991,145.48747 v -0.68194 l 0.41293,-0.47453 0.39291,0.47451 v 0.68194"
       inkscape:connector-curvature="0"
       sodipodi:nodetypes="ccccc" />
    <path
       id="path2233"
       style="opacity:1;fill:none;stroke:#919fa0;stroke-width:0.238125;stroke-linecap:square;stroke-linejoin:round;stroke-miterlimit:4;stroke-dasharray:none;stroke-dashoffset:0;stroke-opacity:1"
       d="m 104.0159,144.98014 v -0.55685 l 0.37808,-0.32612 0.57148,-0.89688 0.58087,0.89686 0.36303,0.32612 v 0.55685"
       inkscape:connector-curvature="0"
       sodipodi:nodetypes="ccccccc" />
    <path
       id="path846"
       style="opacity:1;fill:none;stroke:#919fa0;stroke-width:0.22489583;stroke-linecap:square;stroke-linejoin:round;stroke-miterlimit:4;stroke-dasharray:none;stroke-dashoffset:0;stroke-opacity:1"
       d="m 103.50177,144.16247 c -6.6e-4,-0.10533 0.13956,-0.22366 0.22247,-0.27386 l 1.24448,-0.27905 1.25904,0.27905 c 0.0829,0.0502 0.21014,0.17193 0.21078,0.27386"
       inkscape:connector-curvature="0"
       sodipodi:nodetypes="ccccc" />
    <path
       style="opacity:0.7;fill:none;stroke:#ffffff;stroke-width:0.07275608;stroke-linecap:round;stroke-linejoin:round;stroke-miterlimit:4;stroke-dasharray:none;stroke-dashoffset:0;stroke-opacity:1;filter:url(#filter5955)"
       d="m 102.29063,137.69166 -0.28129,-0.27759 -0.42121,-0.0863 m -0.0816,1.55283 v -0.72976 l -0.37966,-0.25062 m -0.35602,1.72309 -0.0179,-0.88934 -0.26318,-0.28756"
       id="path1362"
       inkscape:connector-curvature="0"
       transform="matrix(0.69095029,0,0,0.69095029,35.710269,48.962698)"
       sodipodi:nodetypes="ccccccccc" />
    <path
       style="opacity:0.8;fill:none;stroke:#ffffff;stroke-width:0.10583332;stroke-linecap:round;stroke-linejoin:round;stroke-miterlimit:4;stroke-dasharray:none;stroke-dashoffset:0;stroke-opacity:1;filter:url(#filter5983)"
       d="m 98.037417,137.52461 c 0.230469,-0.30974 0.601279,-0.29549 1.065358,-0.41361 m -0.314985,1.61417 0.03291,-0.69223 0.526245,-0.46602 0.058,-0.11053 m 0.146486,1.98508 0.0359,-0.84934 c 0.159413,-0.17902 0.229079,-0.29221 0.388492,-0.47123"
       id="path1354"
       inkscape:connector-curvature="0"
       transform="matrix(0.69095029,0,0,0.69095029,35.73094,48.970966)"
       sodipodi:nodetypes="ccccccccc" />
    <path
       style="opacity:1;fill:#90a29f;fill-opacity:1;stroke:#919fa0;stroke-width:0.15875;stroke-linecap:square;stroke-linejoin:bevel;stroke-miterlimit:4;stroke-dasharray:none;stroke-dashoffset:0;stroke-opacity:1"
       d="m 104.27317,143.16451 v 0.35533 l 0.69503,0.99709 0.69384,-0.99709 v -0.35533 l -0.69545,-0.59031 z"
       id="path915"
       inkscape:connector-curvature="0"
       sodipodi:nodetypes="ccccccc" />
    <path
       style="color:#000000;font-style:normal;font-variant:normal;font-weight:normal;font-stretch:normal;font-size:medium;line-height:normal;font-family:sans-serif;font-variant-ligatures:normal;font-variant-position:normal;font-variant-caps:normal;font-variant-numeric:normal;font-variant-alternates:normal;font-feature-settings:normal;text-indent:0;text-align:start;text-decoration:none;text-decoration-line:none;text-decoration-style:solid;text-decoration-color:#000000;letter-spacing:normal;word-spacing:normal;text-transform:none;writing-mode:lr-tb;direction:ltr;text-orientation:mixed;dominant-baseline:auto;baseline-shift:baseline;text-anchor:start;white-space:normal;shape-padding:0;clip-rule:nonzero;display:inline;overflow:visible;visibility:visible;opacity:0.7;isolation:auto;mix-blend-mode:normal;color-interpolation:sRGB;color-interpolation-filters:linearRGB;solid-color:#000000;solid-opacity:1;vector-effect:none;fill:#ffffff;fill-opacity:1;fill-rule:nonzero;stroke:none;stroke-width:0.21166667;stroke-linecap:round;stroke-linejoin:round;stroke-miterlimit:4;stroke-dasharray:none;stroke-dashoffset:0;stroke-opacity:1;color-rendering:auto;image-rendering:auto;shape-rendering:auto;text-rendering:auto;enable-background:accumulate;filter:url(#filter6007)"
       d="m 99.820903,135.84829 c 0,0 -0.505782,0.23697 -0.614468,0.52323 -0.07225,0.19029 -0.0015,0.5339 0.225413,0.78858 -0.125648,-0.49115 0.150591,-1.06747 0.389055,-1.31181 z"
       id="path1378"
       inkscape:connector-curvature="0"
       transform="matrix(0.69095029,0,0,0.69095029,35.853717,49.006045)"
       sodipodi:nodetypes="cscc" />
    <g
       id="g2137"
       transform="matrix(0.90462604,0,0,0.90462604,10.21226,13.866146)">
      <circle
         transform="matrix(-0.70425679,0,0,0.70425679,34.176919,47.13557)"
         style="opacity:0.8;fill:none;fill-opacity:1;fill-rule:evenodd;stroke:#000000;stroke-width:0.91366089;stroke-miterlimit:4;stroke-dasharray:none;filter:url(#filter2054)"
         id="circle1372"
         r="3.6633482"
         cy="137.46622"
         cx="-100.42927" />
      <path
         inkscape:connector-curvature="0"
         id="circle861"
         d="m 102.2205,143.8155 c -0.0635,1.67308 1.76433,3.01779 3.34237,2.4647 1.61605,-0.43405 2.36342,-2.57682 1.36689,-3.92144 -0.89227,-1.41617 -3.16005,-1.49647 -4.15025,-0.14698 -0.36009,0.45139 -0.56044,1.02639 -0.55901,1.60372 z"
         style="opacity:1;fill:none;fill-opacity:1;fill-rule:evenodd;stroke:#919fa0;stroke-width:0.52646064;stroke-miterlimit:4;stroke-dasharray:none;stroke-opacity:1" />
      <path
         inkscape:connector-curvature="0"
         id="circle1604"
         d="m 102.13706,143.67511 c -0.0635,1.67307 1.76433,3.01779 3.34236,2.46471 1.61606,-0.43406 2.36343,-2.57684 1.36689,-3.92145 -0.89226,-1.41616 -3.16004,-1.49647 -4.15025,-0.14697 -0.36008,0.45138 -0.56043,1.02637 -0.559,1.60371 z"
         style="opacity:1;fill:none;fill-opacity:1;fill-rule:evenodd;stroke:url(#linearGradient2095);stroke-width:0.14916386;stroke-miterlimit:4;stroke-dasharray:none" />
    </g>
  </g>
</svg>
